<svg width="33" height="32" viewBox="0 0 33 32" fill="none" xmlns="http://www.w3.org/2000/svg">
<path d="M8.20852 25.667H18.124C18.8767 25.667 19.469 25.0426 19.319 24.305C18.905 22.2686 17.5526 18.667 13.1663 18.667C8.78003 18.667 7.42768 22.2686 7.0136 24.305C6.86362 25.0426 7.45586 25.667 8.20852 25.667Z" stroke="#3F3F55" stroke-width="1.5" stroke-linecap="round" stroke-linejoin="round"/>
<path d="M21.5 18.667C24.2717 18.667 25.4069 21.5309 25.8652 23.595C26.1127 24.7097 25.2111 25.667 24.0692 25.667H22.8333" stroke="#3F3F55" stroke-width="1.5" stroke-linecap="round" stroke-linejoin="round"/>
<path d="M13.1667 13.6663C15.1917 13.6663 16.8333 12.0247 16.8333 9.99967C16.8333 7.97463 15.1917 6.33301 13.1667 6.33301C11.1416 6.33301 9.5 7.97463 9.5 9.99967C9.5 12.0247 11.1416 13.6663 13.1667 13.6663Z" stroke="#3F3F55" stroke-width="1.5" stroke-linecap="round" stroke-linejoin="round"/>
<path d="M20.167 13.6663C22.1921 13.6663 23.5003 12.0247 23.5003 9.99967C23.5003 7.97463 22.1921 6.33301 20.167 6.33301" stroke="#3F3F55" stroke-width="1.5" stroke-linecap="round" stroke-linejoin="round"/>
</svg>
