<svg width="32" height="30" viewBox="0 0 32 30" fill="none" xmlns="http://www.w3.org/2000/svg">
<path fill-rule="evenodd" clip-rule="evenodd" d="M7.05654 6.8041C7.57724 6.32051 8.42146 6.32051 8.94216 6.8041L15.9993 13.3583L23.0565 6.8041C23.5772 6.32051 24.4215 6.32051 24.9422 6.8041C25.4629 7.28768 25.4629 8.07173 24.9422 8.55531L17.885 15.1095L24.9422 21.6637C25.4629 22.1472 25.4629 22.9313 24.9422 23.4149C24.4215 23.8985 23.5772 23.8985 23.0565 23.4149L15.9993 16.8607L8.94216 23.4149C8.42146 23.8985 7.57724 23.8985 7.05654 23.4149C6.53584 22.9313 6.53584 22.1472 7.05654 21.6637L14.1137 15.1095L7.05654 8.55531C6.53584 8.07173 6.53584 7.28768 7.05654 6.8041Z" fill="#3F3F55"/>
</svg>
