<svg width="40" height="36" viewBox="0 0 40 36" fill="none" xmlns="http://www.w3.org/2000/svg">
<path fill-rule="evenodd" clip-rule="evenodd" d="M5.41421 0.585786C4.63317 -0.195262 3.36684 -0.195262 2.58579 0.585786C1.80474 1.36683 1.80474 2.63317 2.58579 3.41421L7.43411 8.26254C4.57279 10.4147 2.0785 13.3709 0.211146 17.1056C-0.0703819 17.6686 -0.0703819 18.3314 0.211146 18.8944C4.52758 27.5273 12.1937 32 20 32C23.1103 32 26.1984 31.29 29.0612 29.8896L34.5858 35.4142C35.3668 36.1953 36.6332 36.1953 37.4142 35.4142C38.1953 34.6332 38.1953 33.3668 37.4142 32.5858L5.41421 0.585786ZM26.0275 26.856L22.5868 23.4153C21.8036 23.7901 20.9263 24 20 24C16.6863 24 14 21.3137 14 18C14 17.0737 14.2099 16.1964 14.5847 15.4132L10.2968 11.1252C7.97555 12.7588 5.89442 15.0427 4.25932 18C7.99611 24.7584 14.0624 28 20 28C22.0268 28 24.0685 27.6223 26.0275 26.856Z" fill="#747488"/>
<path d="M33.1046 21.791C34.0706 20.6803 34.9569 19.4175 35.7406 18C32.0038 11.2416 25.9375 8 19.9999 8C19.7759 8 19.5517 8.00461 19.3275 8.01386L15.7588 4.44516C17.1548 4.14902 18.575 4 19.9999 4C27.8062 4 35.4723 8.4727 39.7888 17.1056C40.0703 17.6686 40.0703 18.3314 39.7888 18.8944C38.7008 21.0703 37.4001 22.982 35.9379 24.6243L33.1046 21.791Z" fill="#747488"/>
</svg>
