<svg width="40" height="28" viewBox="0 0 40 28" fill="none" xmlns="http://www.w3.org/2000/svg">
<path d="M26 14C26 17.3137 23.3137 20 20 20C16.6863 20 14 17.3137 14 14C14 10.6863 16.6863 8 20 8C23.3137 8 26 10.6863 26 14Z" fill="#747488"/>
<path fill-rule="evenodd" clip-rule="evenodd" d="M39.7889 13.1056C35.4724 4.4727 27.8063 0 20 0C12.1937 0 4.52758 4.4727 0.211146 13.1056C-0.0703819 13.6686 -0.0703819 14.3314 0.211146 14.8944C4.52758 23.5273 12.1937 28 20 28C27.8063 28 35.4724 23.5273 39.7889 14.8944C40.0704 14.3314 40.0704 13.6686 39.7889 13.1056ZM20 24C14.0624 24 7.99611 20.7584 4.25932 14C7.99611 7.24156 14.0624 4 20 4C25.9376 4 32.0039 7.24156 35.7407 14C32.0039 20.7584 25.9376 24 20 24Z" fill="#747488"/>
</svg>
